<svg xmlns="http://www.w3.org/2000/svg" width="495" height="195" viewBox="0 0 495 195">
  <rect width="495" height="195" rx="12" fill="#0a0a0a" stroke="#222" stroke-width="1"/>
  <text x="24" y="32" font-family="monospace" font-size="14" font-weight="bold" fill="#dbb454">💻 Top Languages</text>

  <!-- Language bars -->
  <text x="24" y="62" font-family="monospace" font-size="11" fill="#f1e05a">JavaScript</text>
  <rect x="130" y="52" width="220" height="12" rx="3" fill="#111"/>
  <rect x="130" y="52" width="146" height="12" rx="3" fill="#f1e05a"/>
  <text x="360" y="62" font-family="monospace" font-size="11" fill="#888">33.3%</text>

  <text x="24" y="90" font-family="monospace" font-size="11" fill="#e34c26">HTML</text>
  <rect x="130" y="80" width="220" height="12" rx="3" fill="#111"/>
  <rect x="130" y="80" width="98" height="12" rx="3" fill="#e34c26"/>
  <text x="360" y="90" font-family="monospace" font-size="11" fill="#888">22.2%</text>

  <text x="24" y="118" font-family="monospace" font-size="11" fill="#563d7c">CSS</text>
  <rect x="130" y="108" width="220" height="12" rx="3" fill="#111"/>
  <rect x="130" y="108" width="98" height="12" rx="3" fill="#563d7c"/>
  <text x="360" y="118" font-family="monospace" font-size="11" fill="#888">22.2%</text>

  <text x="24" y="146" font-family="monospace" font-size="11" fill="#3178c6">TypeScript</text>
  <rect x="130" y="136" width="220" height="12" rx="3" fill="#111"/>
  <rect x="130" y="136" width="49" height="12" rx="3" fill="#3178c6"/>
  <text x="360" y="146" font-family="monospace" font-size="11" fill="#888">11.1%</text>

  <text x="24" y="174" font-family="monospace" font-size="11" fill="#89e051">Shell</text>
  <rect x="130" y="164" width="220" height="12" rx="3" fill="#111"/>
  <rect x="130" y="164" width="49" height="12" rx="3" fill="#89e051"/>
  <text x="360" y="174" font-family="monospace" font-size="11" fill="#888">11.1%</text>
</svg>